<?xml version="1.0" encoding="UTF-8" standalone="no"?> <svg xmlns="http://www.w3.org/2000/svg" viewBox="0 0 60 60"><defs><style>.cls-1,.cls-3{fill:none;}.cls-2{fill:#ffc824;}.cls-3{stroke:#6b400d;stroke-linecap:round;stroke-linejoin:round;stroke-width:2px;}</style></defs><title>Comment</title><g id="图层_2" data-name="图层 2"><g id="Icons"><g id="Comment"><rect class="cls-1" width="60" height="60"/><rect class="cls-1" width="60" height="60"/><path class="cls-2" d="M40,22.16H20a1.5,1.5,0,0,0-1.5,1.5v9.5a1.5,1.5,0,0,0,1.5,1.5h6L29.29,38a1,1,0,0,0,1.42,0L34,34.66h6a1.5,1.5,0,0,0,1.5-1.5v-9.5A1.5,1.5,0,0,0,40,22.16Z"/><line class="cls-3" x1="30" y1="29.04" x2="30" y2="27.54"/><line class="cls-3" x1="23.75" y1="29.04" x2="23.75" y2="27.54"/><line class="cls-3" x1="36.25" y1="29.04" x2="36.25" y2="27.54"/><line class="cls-3" x1="23.13" y1="17.66" x2="22.63" y2="17.66"/><path class="cls-3" d="M18.5,17.66H17a3,3,0,0,0-3,3v15.5a3,3,0,0,0,3,3h7l4.59,4.59a2,2,0,0,0,2.82,0L36,39.16h7a3,3,0,0,0,3-3V20.66a3,3,0,0,0-3-3H28"/></g></g></g></svg>