<?xml version="1.0" encoding="UTF-8" standalone="no"?> <svg xmlns="http://www.w3.org/2000/svg" viewBox="0 0 60 60"><defs><style>.cls-1,.cls-2{fill:none;}.cls-2{stroke:#6b400d;stroke-linecap:round;stroke-linejoin:round;stroke-width:2px;}.cls-3{fill:#ffc824;}</style></defs><title>Tag</title><g id="图层_2" data-name="图层 2"><g id="Icons"><g id="Tag"><rect class="cls-1" width="60" height="60"/><path class="cls-2" d="M33.71,15l8.91,1a3,3,0,0,1,2.65,2.65l1,8.91A3,3,0,0,1,45.4,30L28.74,46.62a3,3,0,0,1-4.24,0l-9.9-9.9a3,3,0,0,1,0-4.24L31.26,15.82A3,3,0,0,1,33.71,15Z"/><path class="cls-3" d="M19.29,33.44,29.5,23.24A1.53,1.53,0,0,1,31,22.9L35.36,24a2.72,2.72,0,0,1,1.9,1.9l1.06,4.39A1.53,1.53,0,0,1,38,31.72L27.78,41.93a2,2,0,0,1-2.68-.36l-5.45-5.45A2,2,0,0,1,19.29,33.44Z"/><path class="cls-2" d="M36.31,21.54a3.92,3.92,0,0,1,2.24,1.13,4,4,0,1,1-6.62,1.57"/></g></g></g></svg>