<?xml version="1.0" encoding="UTF-8" standalone="no"?> <svg xmlns="http://www.w3.org/2000/svg" viewBox="0 0 60 60"><defs><style>.cls-1,.cls-3{fill:none;}.cls-2{fill:#ffc824;}.cls-3,.cls-4{stroke:#6b400d;stroke-linecap:round;stroke-linejoin:round;stroke-width:2px;}.cls-4{fill:#fff;}</style></defs><title>Man</title><g id="图层_2" data-name="图层 2"><g id="Icons"><g id="Man"><rect class="cls-1" width="60" height="60"/><path class="cls-2" d="M27.6,14.89h0a1.25,1.25,0,0,0,1.26-1.35c0-.15,0-.31-.06-.47a1.25,1.25,0,0,1-1.19.82,7.2,7.2,0,0,0-7.21,7.2v1A7.2,7.2,0,0,1,27.6,14.89Z"/><path class="cls-2" d="M35.26,42A1.46,1.46,0,0,1,33.6,40.6V38a9.58,9.58,0,0,0,6-8.89v-8a7.18,7.18,0,0,0-3.92-6.41,7,7,0,0,1-2.06-1.54,13,13,0,0,0-4.13-3.08.61.61,0,0,0-.87.64c.11.61.19,1.24.24,1.86a1,1,0,0,1,0,.43,14.63,14.63,0,0,1,1.26,1.23,5.63,5.63,0,0,0,1.8,1.37A7.2,7.2,0,0,1,36,22.09v6.44q0,.39,0,.78c-.74,9.22-14.53,9.17-15.51,0a9.64,9.64,0,0,1-.06-1.08v.57a10,10,0,0,0,6,9.2V40.6A1.46,1.46,0,0,1,24.74,42,6,6,0,0,0,18,48H42A6,6,0,0,0,35.26,42Z"/><path class="cls-3" d="M42,48a6,6,0,0,0-6.74-6A1.46,1.46,0,0,1,33.6,40.6V38a9.58,9.58,0,0,0,6-8.89v-8a7.18,7.18,0,0,0-3.92-6.41,7,7,0,0,1-2.06-1.54,13,13,0,0,0-4.13-3.08.61.61,0,0,0-.87.64c.11.61.19,1.24.24,1.86a1.23,1.23,0,0,1-1.25,1.33,7.2,7.2,0,0,0-7.21,7.2v7.68a10,10,0,0,0,6,9.2V40.6A1.46,1.46,0,0,1,24.74,42,6,6,0,0,0,18,48"/><line class="cls-4" x1="25.6" y1="22.55" x2="25.6" y2="23.75"/><line class="cls-4" x1="32" y1="22.55" x2="32" y2="23.75"/><path class="cls-4" d="M31.19,38.63A9.26,9.26,0,0,0,33.61,38"/><path class="cls-4" d="M26.4,30.84h0a3.75,3.75,0,0,0,4.8,0h0"/><line class="cls-4" x1="40" y1="48" x2="44" y2="48"/><line class="cls-4" x1="35" y1="48" x2="36" y2="48"/><line class="cls-4" x1="16" y1="48" x2="31" y2="48"/></g></g></g></svg>